<?xml version="1.0" encoding="utf-8"?>
<!-- Generator: Adobe Illustrator 17.0.0, SVG Export Plug-In . SVG Version: 6.00 Build 0)  -->
<!DOCTYPE svg PUBLIC "-//W3C//DTD SVG 1.1//EN" "http://www.w3.org/Graphics/SVG/1.1/DTD/svg11.dtd">
<svg version="1.1" id="Layer_1" xmlns="http://www.w3.org/2000/svg" xmlns:xlink="http://www.w3.org/1999/xlink" x="0px" y="0px"
	 width="185px" height="116.5px" viewBox="0 0 185 116.5" enable-background="new 0 0 185 116.5" xml:space="preserve">
<g>
	<g>
		<g>
			<path fill="#FFFFFF" d="M67.77,35.536c0,6.871-2.026,12.178-6.078,15.922c-4.053,3.744-9.808,5.616-17.268,5.616h-4.669v20.401
				H23.139V15.976h21.285c7.768,0,13.601,1.697,17.499,5.09C65.82,24.459,67.77,29.283,67.77,35.536z M39.754,43.528h3.029
				c2.496,0,4.48-0.701,5.952-2.103c1.472-1.402,2.208-3.337,2.208-5.805c0-4.15-2.3-6.226-6.899-6.226h-4.291V43.528z"/>
		</g>
		<g>
			<path fill="#FFFFFF" d="M168.406,77.475h-18.761L137.489,53.96l-4.922,2.945v20.57h-16.7V15.976h16.7v26.711
				c0.842-1.654,2.538-4.276,5.09-7.866l12.914-18.845h18.172l-19.392,27.553L168.406,77.475z"/>
		</g>
	</g>
	<path fill="#FFFFFF" d="M181.36,4.585c-0.643-0.643-1.532-1.011-2.441-1.011H6.316c-0.909,0-1.798,0.368-2.441,1.011
		C3.232,5.228,2.864,6.117,2.864,7.026v77.938c0,0.909,0.368,1.798,1.011,2.441c0.643,0.643,1.532,1.011,2.441,1.011h60.913
		c1.906,0,3.452-1.546,3.452-3.452c0-1.907-1.546-3.452-3.452-3.452v0H9.768V10.478h71.416l-9.522,41.531l14.114-3.16L74.822,79.605
		l11.375-1.896l-11.375,35.18l27.596-48.24l-12.85,2.949l20.012-36.654l-15.589,4.424l10.489-24.889h70.985v71.034l-71.752,0
		c-1.907,0-3.452,1.546-3.452,3.452c0,1.906,1.546,3.452,3.452,3.452l75.204,0c0.909,0,1.798-0.368,2.441-1.011
		c0.643-0.643,1.011-1.532,1.011-2.441V7.026C182.371,6.117,182.002,5.228,181.36,4.585z"/>
</g>
</svg>
